<svg xmlns="http://www.w3.org/2000/svg" xmlns:xlink="http://www.w3.org/1999/xlink" xmlns:serif="http://www.serif.com/" width="100%" height="100%" viewBox="0 0 105 105" xml:space="preserve" style="fill-rule:evenodd;clip-rule:evenodd;stroke-linejoin:round;stroke-miterlimit:2;" id="1882852464" class="svg u_1882852464" data-icon-custom="true" data-icon-name="paving-residential.svg"> <path d="M48.549,69.645c1.044,0.952 2.139,2.123 3.021,3.465c1.785,2.716 2.712,6.087 1.006,9.76c-1.059,2.28 -3.193,4.721 -6.988,7.16c-5.318,3.419 -14.047,6.93 -27.833,10.188l-0.671,-2.838c13.328,-3.151 21.785,-6.498 26.927,-9.804c3.18,-2.043 5.032,-4.025 5.919,-5.935c1.214,-2.611 0.471,-4.998 -0.798,-6.93c-1.968,-2.996 -5.189,-4.986 -5.607,-5.236l-30.635,0l0,-2.917l18.475,0l0,-31.458l-6.365,0c-0.597,0 -1.134,-0.364 -1.355,-0.919c-0.221,-0.554 -0.082,-1.187 0.351,-1.598l27.501,-26.078c0.562,-0.533 1.444,-0.533 2.006,0l27.501,26.078c0.433,0.411 0.572,1.044 0.351,1.598c-0.221,0.555 -0.758,0.919 -1.355,0.919l-6.365,0l0,31.458l18.475,0l0,2.917l-24.976,0c5.142,2.41 12.644,6.397 17.699,11.152c3.629,3.413 5.979,7.253 5.77,11.148c-0.143,2.667 -1.445,5.421 -4.49,8.116l-1.933,-2.184c2.307,-2.042 3.402,-4.067 3.511,-6.088c0.168,-3.137 -1.933,-6.119 -4.856,-8.868c-8.015,-7.537 -22.462,-13.031 -22.462,-13.031l0.029,-0.075l-11.853,0Zm13.669,-3.087l8.5,0l0,-31.458l-36.436,0l0,31.458l8.5,0l0,-21.794c0,-0.805 0.653,-1.458 1.458,-1.458l16.52,0c0.805,0 1.458,0.653 1.458,1.458l0,21.794Zm-2.917,0l0,-20.335l-13.602,0l0,20.335l13.602,0Zm-30.644,-34.375l47.686,0l-23.843,-22.61l-23.843,22.61Z"></path> </svg>