<svg xmlns="http://www.w3.org/2000/svg" xmlns:xlink="http://www.w3.org/1999/xlink" id="1677043753" x="0px" y="0px" width="70px" height="70px" viewBox="0 0 70 70" xml:space="preserve" class="svg u_1677043753" data-icon-custom="true" data-icon-name="concrete-foundation-01.svg"> <g display="none"> <path display="inline" d="M56.706,53.877V40.063H49.53V17.996c0-0.62,0.296-1.211,0.792-1.581l2.869-2.151  c1.303-0.98,2.081-2.536,2.081-4.163V1.311H36.257v8.791c0,1.626,0.777,3.182,2.082,4.163l2.871,2.153  c0.494,0.37,0.788,0.96,0.788,1.579v22.067h-7.177v13.275h1.793V41.856h5.384v6.281c0,2.104,3.052,3.532,3.398,3.688l0.368,0.165  l0.366-0.165c0.349-0.155,3.399-1.582,3.399-3.688v-3.77h-1.791v3.755c-0.133,0.787-1.442,1.582-1.703,1.735l-0.271,0.158  l-0.273-0.158c-0.26-0.153-1.566-0.948-1.692-1.622l-0.01-10.686h3.95v4.306h7.176v12.021c0,0.533-0.121,1.053-0.352,1.504  c-0.281,0.56-1.302,2.254-2.001,3.244l1.4,1.121c0.767-1.074,1.885-2.929,2.202-3.557C56.52,55.487,56.706,54.688,56.706,53.877z   M38.049,3.104H53.48v2.513H38.049V3.104z M47.739,35.758h-3.95V18.892h3.95V35.758z M47.985,16.741l-0.128,0.357H43.67  l-0.127-0.357c-0.259-0.729-0.695-1.337-1.259-1.758l-2.869-2.153c-0.855-0.641-1.366-1.661-1.366-2.729V7.409H53.48v2.692  c0,1.069-0.51,2.088-1.365,2.729l-2.87,2.15C48.683,15.404,48.247,16.012,47.985,16.741z"></path>  <polygon display="inline" points="46.961,63.386 58.312,63.386 63.41,68.481 64.676,67.215 59.054,61.593 47.438,61.593   37.391,55.852 31.125,55.852 21.215,62.931 12.512,60.028 5.324,67.215 6.592,68.481 12.996,62.08 21.518,64.919 21.747,64.758   22.09,65.192 23.19,66.844 24.682,65.85 23.24,63.687 31.698,57.645 36.914,57.645  "></polygon> </g>  <g> <path d="M24.407,19.932L10.787,40.113h35.805l13.622-20.181H24.407z M45.529,38.113h-30.98l10.921-16.181H56.45L45.529,38.113z"></path>  <path d="M65.438,16.387H20.901L4.563,41.514l-2,3.076v1.297v7.727h45.971l18.904-28.196v-7.734v-1.296H65.438z M21.986,18.387  h42.608l-16.582,25.5H5.406L21.986,18.387z M4.563,45.887H47v5.727H4.563V45.887z M65.438,24.809L49,49.326v-3.439h0.099  l16.339-25.127V24.809z"></path> </g> </svg>