<svg xmlns="http://www.w3.org/2000/svg" xmlns:xlink="http://www.w3.org/1999/xlink" xmlns:serif="http://www.serif.com/" width="100%" height="100%" viewBox="0 0 105 105" xml:space="preserve" style="fill-rule:evenodd;clip-rule:evenodd;stroke-linejoin:round;stroke-miterlimit:2;" id="1975423642" class="svg u_1975423642" data-icon-custom="true" data-icon-name="paving-commercial.svg"> <path d="M26.623,19.213l-4.003,0c-0.805,0 -1.458,-0.653 -1.458,-1.458l0,-9.102c0,-0.805 0.653,-1.458 1.458,-1.458l57.567,0c0.806,0 1.459,0.653 1.459,1.458l0,9.102c0,0.805 -0.653,1.458 -1.459,1.458l-4.002,0l0,42.136l15.807,0l0,2.917l-29.356,0c-1.091,0.73 -4.586,3.219 -6.916,6.585c-1.693,2.446 -2.801,5.385 -1.492,8.436c0.925,2.156 2.989,4.313 6.625,6.432c5.896,3.437 15.729,6.643 31.375,9.208l-0.472,2.878c-16.152,-2.648 -26.285,-6.018 -32.372,-9.566c-4.354,-2.538 -6.729,-5.22 -7.836,-7.802c-1.74,-4.055 -0.476,-7.995 1.774,-11.245c1.349,-1.95 3.047,-3.638 4.539,-4.926l-17.011,0c-1.511,0.533 -10.465,3.815 -17.251,9.099c-4.183,3.256 -7.61,7.246 -7.478,11.92c0.087,3.102 1.772,6.428 5.654,10.009l-1.977,2.144c-4.645,-4.284 -6.489,-8.36 -6.593,-12.071c-0.156,-5.544 3.641,-10.441 8.602,-14.304c3.672,-2.859 7.947,-5.161 11.444,-6.797l-20.479,0l0,-2.917l13.851,0l0,-42.136Zm37.038,42.136l9.607,0l0,-42.136l-43.729,0l0,42.136l9.607,0l0,-12.371c0,-0.805 0.653,-1.458 1.459,-1.458l21.598,0c0.805,0 1.458,0.653 1.458,1.458l0,12.371Zm-13.716,-10.912l-7.882,0l0,10.912l7.882,0l0,-10.912Zm2.917,0l0,10.912l7.882,0l0,-10.912l-7.882,0Zm-8.792,-15.202c0,-0.805 -0.653,-1.458 -1.459,-1.458l-8.393,0c-0.806,0 -1.459,0.653 -1.459,1.458l0,7.233c0,0.805 0.653,1.458 1.459,1.458l8.393,0c0.806,0 1.459,-0.653 1.459,-1.458l0,-7.233Zm13.104,0c0,-0.805 -0.653,-1.458 -1.459,-1.458l-8.393,0c-0.806,0 -1.459,0.653 -1.459,1.458l0,7.233c0,0.805 0.653,1.458 1.459,1.458l8.393,0c0.806,0 1.459,-0.653 1.459,-1.458l0,-7.233Zm12.989,0c0,-0.805 -0.653,-1.458 -1.459,-1.458l-8.393,0c-0.806,0 -1.459,0.653 -1.459,1.458l0,7.233c0,0.805 0.653,1.458 1.459,1.458l8.393,0c0.806,0 1.459,-0.653 1.459,-1.458l0,-7.233Zm-34.487,1.459l0,4.315l5.477,0l0,-4.315l-5.477,0Zm13.104,0l0,4.315l5.477,0l0,-4.315l-5.477,0Zm12.989,0l0,4.315l5.477,0l0,-4.315l-5.477,0Zm-17.757,-13.202c0,-0.805 -0.653,-1.458 -1.458,-1.458l-8.394,0c-0.805,0 -1.458,0.653 -1.458,1.458l0,7.232c0,0.806 0.653,1.459 1.458,1.459l8.394,0c0.805,0 1.458,-0.653 1.458,-1.459l0,-7.232Zm26.093,0c0,-0.805 -0.653,-1.458 -1.458,-1.458l-8.394,0c-0.805,0 -1.458,0.653 -1.458,1.458l0,7.232c0,0.806 0.653,1.459 1.458,1.459l8.394,0c0.805,0 1.458,-0.653 1.458,-1.459l0,-7.232Zm-12.989,0c0,-0.805 -0.653,-1.458 -1.458,-1.458l-8.394,0c-0.805,0 -1.458,0.653 -1.458,1.458l0,7.232c0,0.806 0.653,1.459 1.458,1.459l8.394,0c0.805,0 1.458,-0.653 1.458,-1.459l0,-7.232Zm-21.497,1.458l0,4.316l5.477,0l0,-4.316l-5.477,0Zm26.093,0l0,4.316l5.477,0l0,-4.316l-5.477,0Zm-12.989,0l0,4.316l5.477,0l0,-4.316l-5.477,0Zm-24.645,-8.653l54.651,0l0,-6.185l-54.651,0l0,6.185Z"></path> </svg>